<svg width="25" height="20" viewBox="0 0 25 20" fill="none" xmlns="http://www.w3.org/2000/svg">
<path d="M21.75 0H2.41667C1.0875 0 0 1.0875 0 2.41667V16.9167C0 18.2458 1.0875 19.3333 2.41667 19.3333H21.75C23.0792 19.3333 24.1667 18.2458 24.1667 16.9167V2.41667C24.1667 1.0875 23.0792 0 21.75 0ZM21.2667 5.13542L13.3642 10.0775C12.5788 10.5729 11.5879 10.5729 10.8025 10.0775L2.9 5.13542C2.59792 4.94208 2.41667 4.61583 2.41667 4.26542C2.41667 3.45583 3.29875 2.9725 3.9875 3.39542L12.0833 8.45833L20.1792 3.39542C20.8679 2.9725 21.75 3.45583 21.75 4.26542C21.75 4.61583 21.5688 4.94208 21.2667 5.13542Z" fill="#1C1C1C"/>
</svg>
