<svg width="17" height="24" viewBox="0 0 17 24" fill="none" xmlns="http://www.w3.org/2000/svg">
<path d="M8.45833 0C3.78208 0 0 3.78208 0 8.45833C0 13.4971 5.34083 20.445 7.54 23.0913C8.02333 23.6713 8.90542 23.6713 9.38875 23.0913C11.5758 20.445 16.9167 13.4971 16.9167 8.45833C16.9167 3.78208 13.1346 0 8.45833 0ZM8.45833 11.4792C6.79083 11.4792 5.4375 10.1258 5.4375 8.45833C5.4375 6.79083 6.79083 5.4375 8.45833 5.4375C10.1258 5.4375 11.4792 6.79083 11.4792 8.45833C11.4792 10.1258 10.1258 11.4792 8.45833 11.4792Z" fill="#1C1C1C"/>
</svg>
